<?xml version="1.0" encoding="UTF-8"?> <!-- Generator: Adobe Illustrator 16.0.0, SVG Export Plug-In . SVG Version: 6.00 Build 0) --> <svg xmlns="http://www.w3.org/2000/svg" xmlns:xlink="http://www.w3.org/1999/xlink" id="Layer_1" x="0px" y="0px" width="289px" height="213px" viewBox="128.775 79.445 289 213" xml:space="preserve"> <rect x="128.775" y="79.445" fill="#FFFFFF" width="289" height="213"></rect> <g> <g> <path d="M198.125,208.023h6.524c0.671,0,1.342,0,1.952,0c4.147,0,7.378,0.123,10.245,2.196c2.684,1.951,4.33,5.549,4.33,9.818 c0,8.599-4.878,12.013-14.514,12.013h-4.573v19.574h-3.963V208.023z M204.772,228.575c7.745,0,12.196-0.854,12.196-8.232 c0-3.11-1.097-5.672-2.927-7.136c-2.013-1.646-4.939-1.708-9.269-1.708h-2.683v17.076H204.772z"></path> <path d="M264.291,246.076c-4.452,4.329-10.245,6.708-16.526,6.708c-6.342,0-12.074-2.379-16.465-6.708 c-4.39-4.33-6.83-10.062-6.83-16.16c0-6.22,2.378-11.953,6.83-16.282c4.391-4.33,10.062-6.586,16.465-6.586 s12.135,2.256,16.526,6.586c4.451,4.329,6.83,10.123,6.83,16.282S268.682,241.807,264.291,246.076z M266.913,229.916 c0-10.794-8.537-19.392-19.148-19.392c-10.549,0-19.087,8.537-19.087,19.392c0,10.732,8.417,19.331,19.087,19.331 C258.437,249.247,266.913,240.648,266.913,229.916z"></path> <path d="M299.479,251.625l-15.307-20.795h-2.377v20.795h-3.964v-43.602h7.988c9.452,0,14.148,3.903,14.148,11.892 c0,6.83-4.329,10.915-11.342,10.915l15.672,20.795L299.479,251.625L299.479,251.625z M281.795,227.599h3.963 c6.769,0,9.94-1.586,9.94-7.806c0-6.281-2.989-8.293-9.94-8.293h-3.963V227.599z"></path> <path d="M314.569,211.744h-12.013v-3.72h27.99v3.72h-12.012v39.882h-3.964V211.744z"></path> <path d="M369.412,246.076c-4.451,4.329-10.245,6.708-16.526,6.708c-6.342,0-12.074-2.379-16.464-6.708 c-4.391-4.33-6.83-10.062-6.83-16.16c0-6.22,2.378-11.953,6.83-16.282c4.391-4.33,10.062-6.586,16.464-6.586 c6.403,0,12.136,2.256,16.526,6.586c4.452,4.329,6.83,10.123,6.83,16.282S373.803,241.807,369.412,246.076z M372.035,229.916 c0-10.794-8.538-19.392-19.148-19.392c-10.55,0-19.087,8.537-19.087,19.392c0,10.732,8.416,19.331,19.087,19.331 C363.558,249.247,372.035,240.648,372.035,229.916z"></path> </g> <g> <g> <path stroke="#000000" stroke-width="2.2628" stroke-miterlimit="10" d="M198.239,261.885h3.764c4.17,0,7.392,0,9.969,1.593 c3.154,1.933,4.984,5.697,4.984,10.546c0,4.407-1.492,7.866-4.102,9.867c-2.781,2.136-5.934,2.237-9.833,2.237 c-0.339,0-0.679,0-1.018,0h-3.763V261.885z M202.41,284.229c0.44,0,0.881,0,1.288,0c3.052,0,5.426-0.067,7.256-1.39 c2.306-1.661,3.662-4.748,3.662-8.851c0-3.323-0.881-5.968-2.475-7.73c-2.238-2.475-5.018-2.543-9.087-2.543 c-0.204,0-0.44,0-0.644,0h-1.966v20.514L202.41,284.229L202.41,284.229z"></path> <path stroke="#000000" stroke-width="2.2628" stroke-miterlimit="10" d="M221.297,261.885h12.002v2.068H223.5v7.595h9.799v2.069 H223.5v10.443h9.799v2.067h-12.002V261.885z"></path> <path stroke="#000000" stroke-width="2.2628" stroke-miterlimit="10" d="M249.847,267.614l-1.832,18.513h-2.271l3.289-25.261 l9.29,21.565l9.63-21.565l3.119,25.261h-2.271l-1.798-18.513l-8.646,19.463L249.847,267.614z"></path> <path stroke="#000000" stroke-width="2.2628" stroke-miterlimit="10" d="M282.399,260.935l10.206,25.193h-2.407l-3.085-8.205 h-9.9l-3.221,8.205h-2.238L282.399,260.935z M286.399,276.024l-4.136-10.546l-4.306,10.546H286.399z"></path> <path stroke="#000000" stroke-width="2.2628" stroke-miterlimit="10" d="M294.741,261.885h3.628c0.373,0,0.745,0,1.084,0 c2.306,0,4.103,0.067,5.696,1.22c1.492,1.085,2.407,3.086,2.407,5.459c0,4.781-2.712,6.68-8.07,6.68h-2.543v10.884h-2.203 V261.885L294.741,261.885z M298.437,273.311c4.306,0,6.782-0.475,6.782-4.577c0-1.729-0.611-3.153-1.627-3.967 c-1.119-0.916-2.748-0.949-5.154-0.949h-1.491v9.494H298.437z"></path> <path stroke="#000000" stroke-width="2.2628" stroke-miterlimit="10" d="M313.188,261.885v15.834 c0,4.746,2.136,7.086,6.646,7.086c4.476,0,6.611-2.34,6.611-7.086v-15.834h2.205v15.122c0,6.544-2.883,9.765-8.816,9.765 s-8.816-3.222-8.816-9.765v-15.122H313.188z"></path> <path stroke="#000000" stroke-width="2.2628" stroke-miterlimit="10" d="M338.313,263.953h-6.68v-2.068h15.564v2.068h-6.68 v22.175h-2.204L338.313,263.953L338.313,263.953z"></path> <path stroke="#000000" stroke-width="2.2628" stroke-miterlimit="10" d="M369.384,283.042c-2.476,2.409-5.696,3.73-9.189,3.73 c-3.526,0-6.714-1.322-9.155-3.73c-2.442-2.407-3.798-5.594-3.798-8.985c0-3.458,1.322-6.646,3.798-9.053 c2.441-2.408,5.595-3.663,9.155-3.663s6.748,1.255,9.189,3.663c2.476,2.407,3.797,5.627,3.797,9.053 C373.182,277.481,371.825,280.668,369.384,283.042z M370.843,274.057c0-6.002-4.748-10.783-10.647-10.783 c-5.866,0-10.613,4.748-10.613,10.783c0,5.968,4.679,10.749,10.613,10.749S370.843,280.025,370.843,274.057z"></path> </g> </g> <path fill="#2E3192" d="M401.914,258.74c-0.651,0-1.225-0.034-1.593-0.128c-0.725-0.19-1.638-0.68-2.68-1.173 c-2.24-1.145-5.043-2.563-7.438-2.039c-1.164,0.248-2.551,0.71-4.05,1.201c-3.416,1.12-7.288,2.407-10.519,2.012 c-1.861-0.215-3.912-0.925-6.09-1.7c-3.137-1.075-6.334-2.214-8.925-1.785c-1.376,0.248-3.037,0.741-4.797,1.228 c-3.979,1.178-8.49,2.471-11.901,1.693c-1.438-0.309-2.735-0.676-4-1.008c-2.958-0.835-5.532-1.549-8.613-1.362 c-2.089,0.159-4.691,0.897-7.215,1.602c-2.936,0.869-5.504,1.638-7.047,1.332c-0.897-0.19-1.944-0.586-3.131-1.051 c-2.351-0.921-5.309-2.069-8.424-1.883c-3.175,0.159-5.137,0.922-6.574,1.519c-0.702,0.315-1.309,0.523-1.9,0.612 c-1.604,0.279-2.941,0.279-3.003,0.279H128.775v-1.12h165.239c0,0,1.304,0,2.847-0.237c0.468-0.091,0.98-0.309,1.665-0.56 c1.504-0.584,3.555-1.415,6.893-1.607c3.359-0.181,6.407,1.022,8.886,1.983c1.159,0.421,2.14,0.825,2.981,0.986 c1.264,0.207,3.839-0.526,6.524-1.329c2.557-0.738,5.214-1.506,7.442-1.641c3.265-0.181,6.035,0.593,8.976,1.42 c1.242,0.346,2.535,0.68,3.922,0.984c3.159,0.719,7.527-0.546,11.36-1.661c1.794-0.515,3.499-1.02,4.947-1.259 c2.836-0.536,6.195,0.663,9.443,1.818c2.129,0.733,4.141,1.449,5.873,1.666c2.981,0.337,6.741-0.895,10.051-1.976 c1.516-0.493,2.942-0.994,4.145-1.27c2.769-0.585,5.861,0.995,8.179,2.165c0.991,0.493,1.832,0.919,2.44,1.081 c1.665,0.398,7.516-0.468,9.621-0.803l0.195,1.079C410.126,257.871,404.973,258.74,401.914,258.74L401.914,258.74z"></path> <g> <g> <path fill="#FFFFFF" d="M237.82,88.236c0.207,0.117,0.207,1.112,0,1.246C237.82,89.036,237.82,88.637,237.82,88.236z"></path> <path fill="#FFFFFF" d="M224.006,110.647c0.875-0.273,2.276-0.028,3.337-0.113C226.48,110.836,225.084,110.583,224.006,110.647z"></path> <path fill="#FFFFFF" d="M151.431,231.106c0.103,0,0.214,0,0.368,0c0.014,0.273-0.03,0.499-0.153,0.596 C151.395,231.702,151.395,231.415,151.431,231.106z"></path> <path fill="#FFFFFF" d="M153.651,233.203c-0.541,0.533-0.346,1.917-0.39,2.602c0.457,0.059,0.487-0.5,0.886-0.125 c-0.985,0.239-0.189,2.273-0.886,2.836c-1.011-0.31-0.621-2.015-1-2.964c0.315,0.033,0.499-0.036,0.644-0.151 c0-0.12,0-0.306,0-0.468c-0.145-0.496-0.828-0.401-0.644-1.236C153.11,233.918,153.161,233.359,153.651,233.203z"></path> <path fill="#FFFFFF" d="M155.489,238.515c0.044,0.426-0.05,0.772-0.387,0.836c0.602,0.362,0.079,0.493,0.137,1.226 c-0.03,0.278,0.44,0.095,0.608,0.128c-0.221,0.312-0.168,0.811-0.356,1.115c-0.156-0.374-1.404-0.68-1.477,0 c-0.32-0.246-0.265-0.894-0.629-1.115c0.111-0.643,0.855-0.663,1.468-0.828c0-0.526-0.549-0.435-0.706-0.749 C154.239,238.585,154.729,238.396,155.489,238.515z"></path> <path fill="#FFFFFF" d="M154.013,242.922c-0.056,0-0.098,0-0.131,0c0.047-0.307-0.218-0.265-0.125-0.61 c0.2-0.215,0.732-0.098,1.094-0.098C154.888,242.761,153.957,242.382,154.013,242.922z"></path> <path fill="#FFFFFF" d="M231.912,87.13c0.159-0.471,1.159-0.159,1.724-0.25C233.316,87.225,232.221,86.782,231.912,87.13z"></path> <path fill="#FFFFFF" d="M201.589,96.011c0.084-0.462,0.895-0.147,1.348-0.272C202.738,96.083,201.813,95.71,201.589,96.011z"></path> <path fill="#FFFFFF" d="M234.137,86.763c0.309,0.306,1.384-0.104,1.716,0.231C235.307,86.91,234.308,87.253,234.137,86.763z"></path> <path fill="#FFFFFF" d="M232.527,89.593c-0.1,0.557,1.025-0.031,1.108,0.345C233.201,89.966,232.07,90.028,232.527,89.593z"></path> <path fill="#FFF200" d="M157.816,165.659c-0.131-0.184-0.301-0.332-0.474-0.519c0-0.434,0.571-0.323,0.356-0.989 c0.198,0,0.432,0,0.613,0c-0.226-0.438-0.292-1.089-0.24-1.819c0.332,0,0.66,0,0.986,0c0.167-0.468-0.604-1.426-0.109-2.223 c0.401-0.034,0.198,0.557,0.725,0.374c0-0.317-0.218-1.398-0.12-2.223c0.49-0.229,0.675-0.721,1.098-0.994 c0-0.46-0.51-0.373-0.374-0.951c0.287-0.492,0.814-0.724,0.877-1.406c0.521-0.12,0,0.816,0.496,0.752 c0.457-0.027,0.768-0.774,0.985,0c0.432-0.117,0.271-1.384,0.126-1.735c-0.388-0.094-0.167,0.463-0.618,0.256 c0.641-0.963,1.133-2.081,1.855-2.941c1.853,0.063,1.61-1.909,2.955-2.374c0-0.655,0-1.292,0-1.97 c0.398-0.133,0.861-0.187,0.744-0.867c0.708,0.051,1.078-0.276,1.103-0.991c0.827,0,0.775-0.83,1.605-0.83 c0.729-1.549,2.323-2.299,3.203-3.706c0.356,0.12,1.162-0.279,1.101,0.239c0.515-0.278,1.105-0.451,1.105-1.226 c1.418-0.584,1.911-2.134,3.218-2.853c-0.092-0.276-0.777,0.066-0.627-0.485c0.159-0.145,0.546-0.128,0.866-0.128 c0.303-1.198,1.543-1.474,2.34-2.198c0.501,0.139,1.178,0.655,1.838,0.229c-0.532-0.403,0.243-0.677-0.226-1.206 c0.374-0.373,0.307,0.485,0.986,0.201c0.095-0.354-0.331-0.201-0.27-0.574c0.304-0.284,0.671-0.404,0.749-0.894 c0.775,0,1.561,0,2.351,0c1.123-0.488,2.045-1.757,3.19-1.85c-0.12-0.404-0.304-0.25,0-0.585c0.064,0,0.094,0,0.145,0 c0,0.112-0.112,0.153-0.145,0.253c1.226,0.208,2.237-0.813,2.716-1.73c0.267,0.02,0.25,0.329,0.506,0.368 c0.022-0.44,0.521-0.418,0.853-0.529c-0.092-0.593,0.234-0.743,0.487-0.964c0.377,0,0.752,0,1.117,0 c0.246-0.139,0.153-0.585,0.362-0.774c1.31-0.178,1.658-1.357,3.092-1.443c0.146-0.151,0.146-0.459,0.129-0.735 c1.22-0.189,2.179-1.641,3.212-1.24c0.336-0.519,1.003-0.708,1.59-0.987c0.29,0.182,0.41,0.521,0.995,0.374 c0.278-0.159-0.09-0.959,0.258-1.124c0.089,0.376,0.596,0.31,0.596,0.75c2.176-1.236,4.215-2.596,8.014-2.25 c0.053-0.744,1.318-0.991,1.719-0.346c0.816-0.492,2.223-1.417,3.34-0.863c0.217-0.741,1.483-0.368,1.856-0.984 c0.211,0.243,0.317,0.647,0.863,0.616c0.521-0.187,0.12-1.86,1.106-1.237c-0.507,0.24-0.098,0.864,0.348,0.864 c0.142-0.314-0.535-0.437-0.092-0.585c0.827,0.187,0.741-0.501,1.089-0.769c0.267,0.429,0.883,0.524,1.346,0.769 c0.281-0.409,0.997-0.368,1.237-0.769c0.053,0.638,1.391,0.401,1.479,0c0.254,0.053,0.092,0.457,0.507,0.36 c0.076-0.451,0.73-0.396,1.101-0.584c0,0.189,0,0.404,0,0.584c0.592,0.165,0.181-0.763,0.618-0.763 c0.022,0.27,0.208,0.343,0.49,0.313c0.027-0.371-0.12-0.995,0.248-1.022c0.365,0.275,0.459,0.802,0.738,1.114 c0.735,0.217,0.398-0.68,0.861-0.741c0.587-0.125,0.167,0.741,0.621,0.741c0.312-0.313,0.437-0.774,1.114-0.741 c0.201,0.607,1.168,1.008,1.97,0.649c0.092-0.415-0.424-0.156-0.239-0.649c0.426,0,0.894,0,1.34,0 c-0.034,0.307,0.033,0.493,0.139,0.649c1.664-0.156,3.942,0.769,4.934,0.092c0.41,0.858,2.014,0.524,2.702,1.111 c1.897-0.343,1.961,1.167,3.572,1.101c0.301,0.651,0.66,1.242,0.498,2.39c-0.769,0.156-1.236,0.604-1.858,0.952 c0.41,0.521,0.337,1.455,0.859,1.85c1.097,0.031,1.805,0.376,2.105,1.111c2.128,0.159,3.064,1.576,4.449,2.438 c-0.187,0.526,0.27,0.403,0.237,0.743c-0.387,0.111-0.145-0.404-0.607-0.217c0.1,0.378,0.487,0.487,0.607,0.863 c-0.387,1.267-0.496,1.732-1.967,1.245c-0.248,0.178,0,0.886-0.248,1.106c-0.365,0-0.808-0.07-1.003,0.092 c0.262,0.769,0.532,1.54,0.378,2.735c-0.169,0.167-0.582,0.067-0.76,0.226c0,0.526,0.59,0.496,0.76,0.857 c-0.513,0.187-0.273,0.505-0.116,0.87c-1.121,1.351-2.797,2.165-4.695,2.75c-0.084,0.373,0.435,0.094,0.246,0.59 c-0.983-0.161-1.541,0.825-2.34,0.118c-1.348,0.894-3.958,0.557-6.167,0.612c-0.387,0.535-1.091,0.718-1.584,1.12 c-0.092-0.708-1.454-0.212-2.106-0.373c-2.039-1.082-4.607,0.25-7.029,0c-0.362,0.657-1.799,0.25-2.713,0.373 c-0.217,0.05,0.009,0.591-0.259,0.613c-1.741-0.922-2.551,0.863-4.551,0.49c-0.212,0.162,0,0.713-0.343,0.713 c-0.96-0.312-2.909,0.413-3.708,1.02c-0.159-0.279-0.429-0.429-0.743-0.491c-0.374,0.797-1.505,0.797-1.731,1.73 c-0.32,0.02-0.094-0.49-0.496-0.37c-0.398,0.468-1.019,0.674-1.471,1.103c-1.056-0.329-2.535,1-3.585,1.49 c-0.992-0.039-1.853,0.682-1.616,1.454c-0.147,0-0.32,0-0.493,0c0.206-0.189,0.237-0.841-0.223-0.743 c-0.172,0.161-0.172,0.582,0,0.743c-0.172,0-0.328,0-0.493,0c0.101-0.41-0.432-0.189-0.376,0 c-0.348,0.028-0.786-0.133-0.613,0.359c-0.498,0.128-0.665,0.594-1.467,0.407c-0.048,0.217-0.26,0.334-0.368,0.499 c-1.41-0.047-3.16,0.613-3.46,2.062c-1.521,0.493-3.201,0.802-3.705,2.228c-0.201,0-0.694-0.592-0.742,0 c-1.15-0.592-3.462,0.396-3.704,1.85c-0.68,0.212-1.162,0.246-1.357,0.744c-1.39-0.323-1.113,1.009-2.476,0.73 c-0.184,0.312-0.15,0.897-0.861,0.752c0,0.326,0,0.646,0,0.956c-0.462,0.331-0.899,0.704-1.083,1.267 c-0.407-0.069-0.542,0.089-0.498,0.488c-0.613-0.37-1.047,0.426-1.103,0.989c-1.636-0.123-1.666,1.382-2.836,1.732 c-0.044,0.334,0.747-0.122,0.732,0.239c-0.32,0.245-0.423,0.741-0.492,1.239c-0.53-0.426-1.173,0-1.85-0.245 c-0.655,0.587-0.585,1.88-1.733,1.947c0.103,0.986-0.507,1.22-0.491,2.089c-0.284-0.022-0.474,0.044-0.616,0.156 c0,0.073,0,0.148,0,0.217c0,0.117,0,0.253,0,0.373c0,0.117,0,0.251,0,0.396c-0.49,0.12-0.49-0.023-1.123,0 c0.541,0.654,0.07,0.446,0,1.337c0.047,0.139,0.246,0.123,0.379,0.123c0.12,0.604-0.117,0.858-0.741,0.741 c-0.047-0.375,0.34-0.32,0.362-0.629c-0.491-0.356-0.899,0.162-1.086,0.535c0.011,0.239,0.505,0.027,0.724,0.094 c0.34,1.362-0.924,1.101-0.863,2.187c-1.285,0.062-1.083,1.569-2.095,1.886c0,0.334,0,0.637,0,0.989 c-0.751,0.047-1.117,0.56-1.226,1.262c-0.384-0.399-0.722-0.772-1.376-0.892c0-0.371,0.585-0.161,0.764-0.371 c-0.126-0.474-1.003-0.187-1.488-0.248c0.139,1.259-0.819,1.509-0.844,2.588c-0.471,0.114-0.067-0.604-0.635-0.374 c-0.07,0.351,0.047,0.445,0.354,0.374c-0.334,0.526-0.68,1.106-0.847,1.855c-0.443,0.089-0.042-0.616-0.605-0.375 c0.162,0.403,0.53,0.629,0.371,1.359c-1.315,0.652-1.917,2.039-1.847,4.047c-0.774,0.212-1.145,1.73-0.866,2.226 c-0.332-0.092-0.32,0.187-0.613,0.117c0.089,0.535-0.127,0.728-0.374,0.891c0.037,0.226-0.174,0.747,0.246,0.608 c-1.145,1.284-1.326,3.532-2.845,4.401c0,0.803-0.094,1.691,0.256,2.136c-0.512,0.145-0.482-0.256-0.866-0.256 c-0.502,0.648,0.548,0.81,0.233,1.727c-1.022,0.677-1.406,2.042-1.468,3.68c-0.097,0.067-0.191,0.162-0.378,0.162 c0.314,1.624-0.92,1.754-0.733,3.301c-0.652,0.398-0.106,2.064-0.73,2.487c-0.028,0.227,0.435,0.036,0.597,0.095 c-0.544,0.997-0.625,2.414-0.984,3.575c-0.493,0.164-0.281-0.39-0.615-0.39c-0.201,0.532,0.523,1.025,0.615,1.635 c-0.027,0.465-0.501,0.465-0.741,0.75c0.126,0.398,0.404,0.61,0.499,0.983c-0.159,0.961-1.24,1.729-0.749,2.958 c-0.117,0.156-0.083,0.554-0.474,0.49c0.203,0.558-0.309,1.047,0.356,1.117c-0.279,0.426-0.432,0.467-0.125,0.95 c-0.282,0-0.462,0.039-0.619,0.128c0.014,0.375,0.089,0.844-0.351,0.744c-0.097,0.429,0.507,0.192,0.351,0.616 c-0.278,0-0.339,0.212-0.741,0.162c0.062-0.282-0.059-0.348-0.122-0.487c-0.154,0-0.324,0-0.482,0 c-0.262,0.173,0.07,0.939-0.496,0.86c0.292,0.764,1.053,1.75,0.39,2.436c0.307,0.055,0.435,0.307,0.362,0.732 c0.022,0,0.072,0,0.134,0c-0.265,0.404,0.214,1.356-0.496,1.732c0.471,0.028,0.279,0.671,0.496,1.025 c-0.189,0.073-0.265,0.304-0.496,0.332c0.209,0.468,0.209,0.518,0,0.989c0.204,0.125,0.588,0.039,0.71,0.248 c-0.184,0.088-0.752,0.916,0,0.862c0.092,0.496-0.315,0.496-0.71,0.496c-0.098,0.424,0.028,0.705,0.362,0.732 c0,0.187,0,0.41,0,0.627c0.022,0,0.072,0,0.134,0c-0.101,0.091-0.134,0.189-0.134,0.373c-0.387,0.053-0.334-0.346-0.63-0.373 c-0.128,0.15-0.128,0.426-0.123,0.699c0,0.167,0,0.262,0,0.407c-1.028-0.68-0.538-2.833-2.445-2.589 c0.479-0.501-0.07-2.005,0.616-2.382c-0.037-0.206-0.341-0.206-0.616-0.206c0.239-0.571,0.952-1.028,0.339-1.735 c0.34-0.034,0.644-0.034,0.644-0.377c-0.116-0.23-0.707-0.025-0.983-0.116c-0.089-0.487-0.604-0.867-0.159-1.24 c-0.125-0.375-0.892-0.092-0.708-0.741c0.583,0,0.279-1.88,0.708-2.468c-0.1-0.24-0.337-0.374-0.708-0.326 c0.092-1.214,0.226-2.181-0.253-3.229c0.499-0.457,0.992-1.997,0.253-2.616c-0.027-0.248,0.184-0.41,0.371-0.501 c-0.738-0.799,1.175-2.44,0-3.31c-0.125-0.39,0.407-0.138,0.337-0.484c-0.398-0.12-0.398-0.676-0.337-1.24 c-0.446-0.173-0.092,0.44-0.371,0.346c0.184-0.683-0.435-0.585-0.39-1.198c0.315,0.056,0.279,0.451,0.761,0.362 c0.095-0.615-0.342-1.178-0.761-0.858c0.022-0.339,0.524-0.13,0.39-0.596c0.246,0,0.028,0.538,0.371,0.466 c0.095-0.095,0.184-0.12,0.337-0.12c-1.05-0.564,0.638-1.825-0.337-2.223c0.802-0.468-0.491-1.075,0.337-1.61 c0-0.212-0.398-0.056-0.337-0.363c-0.125-0.462,0.276-0.44,0.337-0.741c0.07-1.919,0.839-4.233,0.391-5.532 c0.153-0.211,0.565-0.092,0.751-0.236c-0.476-0.962-0.214-1.801,0.337-2.594c0.034-0.346-0.287-0.346-0.602-0.38 c0.189-0.3,0.421-0.606-0.103-0.742c0-0.36,0.557-0.142,0.704-0.36c-0.259-0.412-0.453-0.532,0-0.86 c-0.214-0.443-0.323,0.204-0.602,0.111c0.189-0.297,0.315-0.676,0.877-0.604c0.253-0.841,1.006-1.849,0.594-2.602 c0.217,0,0.432,0,0.646,0c-0.156-0.581,0.187-0.676,0.362-0.986c-0.549-0.345,0.29-0.741-0.256-1.239 c0.39-0.37,0.482-0.981,0.995-1.24c-1.125-0.606,0.604-2.156-0.39-2.551c1.5-0.307,1.142-2.412,1.853-3.46 c-0.033-0.128-0.25-0.098-0.25-0.24c0.654-0.632,1.457-2.206,1.128-2.969c0.699-0.708,1.41-2.295,0.725-3.591 c1.111,0.356,1.367-1.632,0.638-1.964c0.351-0.306,0.587-0.796,1.101-0.966c0-0.34,0-0.669,0-1.022 c0.674-0.396,1.097-1.078,1.097-2.212c0.873-1.089,2.076-1.864,2.229-3.671c0.145-0.165,0.435-0.165,0.746-0.165 c-0.12-0.771,0.421-0.833,0.733-1.192c-0.766-0.467,0-1.12,0.117-1.73c0.616,0.187,0.535-0.375,1.003-0.375 c0-0.187,0-0.398,0-0.614c1.624-0.651,1.407-3.066,3.323-3.459c-0.089-0.26,0.187-0.872-0.25-0.752 c0.025-0.488,0.51-0.521,0.613-0.984c0.39-0.094,0.226,0.351,0.613,0.256c0.643-1.825,2.457-2.479,2.713-4.661 c0.457,0.028,0.794-0.047,1.12-0.128c-0.184-1.108,0.357-1.479,0.479-2.256c0.482-0.147,0.031,0.56,0.508,0.376 c0.448-0.248-0.387-0.248-0.262-0.616c0.649-0.256,0.835-0.952,1.481-1.209c-0.59-1.546,3.078-2.092,0.499-2.626 c-0.928,1.42-2.596,2.017-3.195,3.741c-0.696-0.223-0.574,0.427-0.758,0.71c-1.114,0.061-1.169,1.192-2.106,1.51 c0.125,1.229-1.267,0.992-1.215,2.217c-0.17,0-0.328,0-0.49,0c-0.385,0.367-0.688,0.835-1.226,1.093 c-0.223,1.479-1.677,1.682-1.847,3.211c-0.162,0.181-0.588,0.089-0.749,0.237c0,0.301,0,0.554,0,0.863 c-0.145,0.184-0.584,0.095-0.73,0.249c0,0.287,0,0.554,0,0.872c-0.162,0.123-0.454,0.123-0.747,0.123 c0.081,0.701-0.281,0.955-0.741,1.1c0,0.348,0,0.657,0,0.997c-0.524,0.15-0.524,0.799-1.111,0.853 c0.25,0.956-0.435,0.956-0.374,1.733c-0.119,0.086-0.337,0.159-0.609,0.086c-0.19,0.568-0.315,1.22-1.117,1.131 C158.916,164.553,157.966,164.707,157.816,165.659z M150.065,220.879c0.295-0.044,0.621-0.112,0.59-0.515 c-0.125-0.09-0.306-0.16-0.59-0.112C150.065,220.458,150.065,220.673,150.065,220.879z"></path> <path fill="#FFFFFF" d="M149.309,203.477c-0.148-0.559-0.349-2.246,0.25-2.485C149.116,201.465,149.399,202.686,149.309,203.477z "></path> <path fill="#FFFFFF" d="M149.065,216.902c0.604,0.046-0.117,1.398,0.493,1.398C148.96,218.756,149.358,217.183,149.065,216.902z"></path> <path fill="#FFFFFF" d="M146.609,218.628c0.064-0.092,0.094-0.207,0.256-0.207c0.086-0.375-0.256-0.252-0.256-0.523 c0.094,0.028,0.128,0.148,0.256,0.148c0.265,0,0.059-0.424,0.114-0.611c0.332-0.097,0.251,0.236,0.479,0.236c0,0,0,0.073,0,0.124 c-0.253-0.237-0.41-0.334-0.356,0.251C146.887,218.208,146.951,218.628,146.609,218.628z"></path> <path fill="#ED1C24" d="M233.77,86.632c0.117,0,0.234,0,0.368,0c0,0.064,0,0.086,0,0.131c0.17,0.49,1.17,0.147,1.716,0.231 c0.133,0.348,0.56,0.44,1.109,0.375c0.184,0.159,0.061,0.591,0.242,0.742c0.17,0.094,0.649-0.125,0.616,0.125 c0,0.401,0,0.799,0,1.246c-1.487,1.371-3.657-1.148-5.292,0.111c-0.457,0.435,0.674,0.373,1.108,0.345 c0.313,0.363,0.368,0.179,0.744,0c0.12,0.524,0.864,0.404,1.474,0.404c0,0.582,0.587,0.616,0.496,1.32 c0.534,0.432,1.584,0.343,1.982,0.901c0.401,0.088,0.145-0.402,0.496-0.374c0.329,0.741,2.006,0.183,2.925,0.374 c0.187,0.147,0.092,0.582,0.281,0.735c1.415,0.22,1.638,1.637,2.437,2.44c-0.281,0.036-0.493,0.155-0.744,0.273 c0,0.351,0.097,0.774-0.122,0.991c-0.329,0-0.803-0.095-0.973,0.092c0,0.315,0,0.594,0,0.858 c-0.577,0.192-1.067,0.443-1.476,0.755c0.27,0.092,0.666,0.056,0.743,0.396c-0.342,1.295,0.134,1.359-0.743,2.19 c0.362,0.123,0.451,0.457,0.743,0.624c-0.23,1.541-0.707,2.83-2.465,2.83c-0.184,0.165-0.091,0.594-0.236,0.719 c-3.182,1.599-6.15,3.359-10.493,3.736c-0.067,0.521-0.343,0.883-1.109,0.741c-0.223,0.098,0,0.549-0.253,0.591 c-1.062,0.086-2.462-0.159-3.337,0.114c-0.245,0.49-1.078,0.398-1.825,0.398c-0.299-0.025-0.148,0.376-0.385,0.376 c-2.771,0.343-4.371,1.878-7.265,2.106c-0.939,0.633-1.981,1.198-3.218,1.571c0.098,0.429-0.12,0.557-0.236,0.74 c-2.755,1.354-5.527,2.683-7.878,4.41c-0.262,0-0.493,0-0.744,0c0.095,0.465-0.159,0.56-0.262,0.772 c-2.014,0.747-3.529,2.131-5.173,3.334c-0.301,0.246-1.034,0.744-1.474,0.995c-1.028,0.551-1.791,1.387-2.599,1.97 c-0.866,0.587-1.783,1.083-2.571,1.855c-0.05,0-0.081,0-0.145,0c-0.304,0.334-0.12,0.181,0,0.585 c-1.146,0.092-2.067,1.362-3.19,1.85c-0.791,0-1.577,0-2.351,0c-0.079,0.49-0.446,0.61-0.749,0.894 c-0.062,0.373,0.365,0.22,0.27,0.574c-0.68,0.284-0.612-0.574-0.986-0.201c0.468,0.529-0.307,0.803,0.225,1.207 c-0.659,0.426-1.337-0.09-1.838-0.229c-0.797,0.724-2.037,1-2.34,2.198c-0.32,0-0.708-0.017-0.866,0.128 c-0.15,0.551,0.535,0.209,0.627,0.485c-1.307,0.719-1.8,2.268-3.218,2.853c0,0.774-0.59,0.948-1.105,1.226 c0.061-0.518-0.744-0.12-1.101-0.239c-0.88,1.406-2.473,2.156-3.203,3.706c-0.831,0-0.778,0.83-1.605,0.83 c-0.025,0.715-0.395,1.042-1.102,0.991c0.116,0.68-0.346,0.733-0.744,0.867c0,0.677,0,1.315,0,1.97 c-1.346,0.465-1.104,2.437-2.956,2.374c-0.722,0.86-1.215,1.978-1.855,2.941c0.452,0.207,0.231-0.351,0.619-0.256 c0.145,0.351,0.306,1.619-0.125,1.735c-0.217-0.774-0.529-0.027-0.986,0c-0.496,0.064,0.025-0.872-0.496-0.752 c-0.064,0.683-0.59,0.914-0.877,1.406c-0.136,0.578,0.374,0.491,0.374,0.951c-0.423,0.273-0.607,0.766-1.098,0.994 c-0.098,0.825,0.12,1.906,0.12,2.223c-0.527,0.184-0.323-0.407-0.725-0.374c-0.496,0.797,0.276,1.755,0.109,2.223 c-0.327,0-0.655,0-0.986,0c-0.053,0.73,0.014,1.382,0.24,1.819c-0.182,0-0.416,0-0.613,0c0.214,0.666-0.357,0.555-0.357,0.989 c0.173,0.187,0.343,0.334,0.474,0.519c0.496,0.487-0.861,1.056-1.602,1.123c0.035,0.911,0.676,1.131,0,1.808 c0.217,0,0.339,0.131,0.384,0.256c-0.708,0.49-0.23,2.151-1.109,2.457c0.078,1.457-0.518,2.195-1.127,2.972 c-0.028,1.413-0.432,2.533-0.854,3.583c-0.287-0.072-0.457,0-0.604,0.123c0,0.465,0,0.889,0,1.354 c-0.409,0.114-0.655,0.349-0.769,0.75c0.769,0.983-0.092,2.674-0.705,3.443c0.152,1.306-0.587,1.368,0,2.201 c-0.432,0.679-0.9,1.109-0.385,1.855c-1.19,1.145-0.468,2.685-1.488,3.813c0.802,0.604,0.176,2.673,0.391,3.839 c-0.184,0-0.279,0.05-0.391,0.123c0.023,0.747,0.089,1.568-0.25,1.983c0.243,0.17,0.481,0.401,0.641,0.73 c-0.215,0.442-0.744,1.39,0,1.732c-0.067,0.215-0.343,0.215-0.391,0.493c0.112,0.092,0.468,0.028,0.391,0.375 c-0.12,0.122-0.465,0.027-0.391,0.323c-0.599,0.239-0.398,1.925-0.25,2.484c0.668,0.708-0.677,1.644,0.25,2.346 c-0.877,0.493,0.023,1.482,0.391,1.877c0.134,0.466-0.368,0.256-0.391,0.596c0,0.148,0,0.34,0,0.496 c-0.044,0.613,0.574,0.516,0.391,1.199c-1.053,0.657,0.518,1.852-0.391,2.295c-0.103,0.396,0.468,0.142,0.391,0.583 c-0.343,0-0.279,0.401-0.641,0.361c-0.29-0.523,0.167-1.786-0.493-1.97c-0.037-0.309,0.482-0.128,0.39-0.496 c-0.894-0.654-0.555-2.507-1.109-3.459c0.649-0.588,0.098-2.279-0.744-2.469c0.062,0.741,0.011,1.418-0.373,1.733 c0.123,0.613,0.479,1.014,0.732,1.477c-0.348,0-0.61,0.025-0.732,0.25c0.629,0.148,0.835,0.707,1.117,1.229 c-1.173,0.466,0.682,1.755-0.253,2.337c0.125,1.218,1.362,2.63,0.621,3.587c0.217,0.099,0.602,0.04,0.741,0.254 c0.125,0.56-0.844,0.827-0.14,1.198c0.292,0.281-0.105,1.854,0.493,1.398c0.022-0.23-0.044-0.465,0.137-0.504 c0.479,1.047,0.345,2.014,0.253,3.228c0.37-0.047,0.607,0.086,0.708,0.326c-0.429,0.588-0.126,2.468-0.708,2.468 c0.147-0.641-0.465-0.518-0.744-0.735c0.194-0.8-0.524-1.056,0-1.479c-0.493-0.468-0.814,0.281-1.237,0.281 c-0.627-0.908-0.71-2.387-1.36-3.256c0.343,0,0.278-0.42,0.494-0.582c0.189,0,0.406,0,0.609,0 c0.044-0.212-0.097-0.212-0.253-0.25c0-0.051,0-0.124,0-0.124c-0.229,0-0.148-0.333-0.479-0.236 c-0.056,0.188,0.15,0.611-0.115,0.611c-0.128,0-0.161-0.12-0.256-0.147c0.371-0.406,0.9-3.315-0.364-2.72 c-0.129,0.46,0.459,0.226,0.364,0.619c-0.429,0.092-0.322-0.445-0.751-0.349c0.017-0.396,0.577-0.269,0.387-0.865 c-0.064-0.281-0.652,0-0.741-0.237c-0.212-0.677-0.246-1.478-0.741-1.845c-0.036-0.288,0.094-0.4,0.365-0.377 c0.081-0.348-0.259-0.214-0.365-0.374c0.27-0.278,0.457-0.618,0.365-1.245c-0.053-0.259-0.638,0-0.735-0.231 c0.034-0.629,0.098-1.242-0.618-1.12c0.062-0.362,0.293-0.615,0.618-0.735c-0.437-0.374-0.401-1.236-0.37-2.104 c0.37-0.122,0.612-0.371,0.741-0.738c-0.167,0-0.22,0.523-0.251,0c-0.301,0,0.062,0.584-0.37,0.368 c-0.151-1.012-0.984-1.39-0.864-2.68c0.084-0.373-0.242-0.25-0.373-0.373c0.465-0.651,0.312-1.61,0.373-3.089 c-1.078-0.612,0.899-2.462-0.373-3.203c-0.089-0.468,0.253-1.429-0.365-1.365c0-0.983,0-1.97,0-2.97c0.125,0,0.245,0,0.365,0 c-0.151-0.49,0.362-1.568-0.365-1.451c0-0.889,0-1.716,0-2.625c0.125,0,0.245,0,0.365,0c-0.104-0.395,0.278-1.223-0.365-1.105 c0-0.371,0-0.699,0-1.073c0.83-0.284,0.125-1.922,0.365-2.719c0.088-0.346,0.56-0.253,0.373-0.632 c0.159-0.488-0.373-0.298-0.373-0.627c0.807-0.234,0.162-1.315,0-1.71c-0.201-0.688,0.465-0.429,0.373-0.989 c-0.677-0.604,0.467-1.147-0.373-1.752c0.481-0.028,0.749-0.284,1.117-0.468c0.156-0.491-0.36-0.306-0.368-0.607 c0.61-0.29,0.796-1.033,1.109-1.616c-0.867-0.771,0-1.596,0.365-2.184c-0.797-1.125,0.25-2.672,0.729-3.627 c-0.014-0.214-0.387-0.092-0.354-0.334c0.677-0.111,1.078-1.477,0.354-1.878c0.725-0.039,0.017-1.54,1.123-1.208 c-0.307-2.226,0.777-3.02,1.117-4.571c-0.092-0.42-0.554-0.42-0.743-0.769c0.554-0.928,1.297-1.696,1.111-3.426 c0.125-0.154,0.432-0.154,0.741-0.125c0.153-0.616-0.309-0.616-0.245-1.106c0.59-0.189,0.59-0.964,0.989-1.362 c0.211-2.315,1.546-3.557,2.573-5.059c0.298-1.393,0.465-2.967,1.839-3.295c0-0.404,0-0.85,0-1.242 c0.15-0.165,0.462-0.123,0.741-0.123c0.507-1.705,1.825-2.571,2.24-4.327c1.496-0.734,1.404-3.12,2.936-3.822 c-0.223-1.053,0.622-1.053,0.374-2.083c0.471-0.086,0.719-0.354,1.12-0.493c-0.172-0.914,0.373-1.1,0.128-1.722 c0.354,0.086,0.298-0.182,0.613-0.125c0-1.198,1.173-1.231,1.487-2.131c-0.388-0.147-0.493,0.134-0.747-0.239 c0.153-0.251,0.518-0.281,0.373-0.867c-0.864,0.282-1.081,1.146-1.855,1.482c0,0.211,0,0.39,0,0.619 c-1.448,0.801-2.037,2.49-3.318,3.476c0,0.19,0,0.413,0,0.602c-1.808,2.027-3.324,4.317-4.44,7.031 c-0.827,0.192-0.708,1.332-1.49,1.615c0,0.27,0,0.583,0,0.855c-1.387,1.448-1.866,3.805-3.317,5.192c0,0.275,0,0.554,0,0.867 c-0.398,0.231-0.861,0.512-1.493,0.58c-0.203,0.612,0.426,0.401,0.385,0.863c-0.34,0-0.683,0-0.995,0 c-0.053,0.831-0.923,0.831-1.108,1.482c-0.271-0.775,0.841-1.543,0.492-2.111c0.187,0.075,0.095,0.378,0.493,0.258 c0.226-0.651-0.371-0.518-0.371-0.955c0.44-0.284,0.805-0.708,1.103-1.106c0.164-0.677-0.217-0.777-0.359-1.12 c0.142-0.145,0.437-0.145,0.744-0.145c-0.282-1.857,0.774-2.412,0.719-4.047c0.314-0.563,0.95-0.774,1.504-1.148 c0.427-0.025,0.275,0.465,0.727,0.396c0.398-0.491,0.009-1.165-0.39-1.591c0.655-0.404,0.089-0.499,0-1.123 c0.989-0.73,0.863-2.497,2.248-2.836c0.385-1.175,1.438-1.663,1.847-2.836c0-0.492,0-0.988,0-1.484 c0.29,0.092,0.257-0.226,0.604-0.125c-0.187-0.919,0.641-1.688,1.6-1.853c0-0.708,0.345-1.145,1.117-1.075 c0.766-1.39,1.134-3.151,2.836-3.591c0.214-0.184,0-0.774,0.376-0.774c1.41-0.108,2.122-0.883,2.342-2.178 c0.708,0.172,0.674-0.37,0.85-0.748c1.336-0.35,1.802-1.57,2.092-2.994c0.22,0,0.423,0,0.635,0 c-0.086-0.827,0.869-0.71,0.989-1.451c0.833,0.254,0.747-0.983,1.34-0.613c0.203,0.496-0.555,0.025-0.368,0.519 c0.479-0.399,0.947-0.212,1.477,0c0.175-0.652-0.385-0.552-0.385-0.986c0.385-0.121,0.451-0.524,1.028-0.393 c0.304-0.349-0.468-0.349-0.265-0.994c0.466-0.273,0.664-0.802,0.984-1.231c0.247,0.119-0.075,0.741,0.359,0.649 c0.245-0.839,1.381-1.022,1.972-0.747c0.078-0.187-0.133-0.652,0.123-0.652c1.019-0.212,1.451-1.009,1.858-1.851 c0.27,0,0.587,0,0.864,0c-0.064-0.734,0.626-0.734,1.229-0.821c0-0.229,0-0.44,0-0.632c1.147,0.091,0.914-1.169,1.615-1.507 c0.22,0.062,0.209,0.368,0.604,0.284c0.468-0.774,0.624-1.858,1.977-1.735c0.263-0.359,0.622-0.621,0.742-1.117 c1.518-0.638,2.12-2.156,3.819-2.621c0.089-0.705,0.435-1.173,1.354-1.082c0.206-1.418,2.187-1.011,2.58-2.22 c0.278,0.209,0.493,0.49,1.109,0.399c0.222-0.24,0.495-0.429,0.866-0.521c0.092-0.37-0.429-0.155-0.23-0.618 c0.454-0.128,0.186,0.463,0.612,0.362c0.253-0.089-0.04-0.702,0.253-0.729c0.226,0,0.479,0,0.716,0 c0.981-1.307,2.786-1.724,4.207-2.568c1.198,0.254,1.485-0.424,2.468-0.368c0.214-0.315,0.292-0.711,0.49-0.992 c0.223-0.301,1.148,0.072,1.348-0.274c1.066-0.245,2.006-1.882,3.087-0.986c0.721-0.615,1.401-1.289,2.961-1.081 c0.181-0.192,0.117-0.654,0.117-1.02c1.259-0.404,1.939-1.426,3.825-1.176c0.827-0.587,1.529-1.226,2.953-1.133 c0.529-0.591,1.371-0.861,2.599-0.75c0.71-0.557,1.636-0.803,2.967-0.735c1.691-1.365,3.501-0.504,5.287-1.488 c1.014,0.1,1.744-0.059,2.329-0.376c0.416-0.114,0.178,0.409,0.499,0.376c0.716-0.892,2.039,0.158,2.351-0.24 c0.31-0.348,1.404,0.095,1.725-0.25C233.725,86.849,233.778,86.782,233.77,86.632z M163.626,128.682c0.373,0,0.733,0,1.104,0 C164.593,127.974,163.746,127.974,163.626,128.682z"></path> <path fill="#00A651" d="M221.076,166.366c-1.229,0.462-1.956-0.494-2.833,0.501c-0.538-0.086-1.615,0.184-1.858,0.735 c-0.367-0.147-0.716-0.091-0.861,0.279c-0.345-0.161-0.468-0.515-0.864-0.652c0.254,0.563-0.47,1.12-0.747,1.359 c-0.287-0.022-0.022-0.641-0.245-0.708c-0.25,0.03-0.741-0.189-0.627,0.215c-0.306-0.095-0.348-0.462-0.61-0.61 c-0.613,0.306-1.237-0.067-1.719,0.516c-0.103-0.209-0.351-0.335-0.253-0.772c-0.159,0.306-1.12,0.306-0.864,0.652 c-0.256-0.089-0.229,0.156-0.256,0.348c-0.585,0-0.329-0.509-0.987-0.229c0.123,0.187,0.43,0.187,0.633,0.376 c-0.298,0.153-0.348,0.396-1.12,0.467c0.052-0.278,0-0.467-0.108-0.615c-0.36,0.36-0.519,0.36-0.864,0 c-0.466,0.264,0.379,0.515,0,0.732c-0.243,0.025-0.641-0.117-0.493,0.253c-0.432-0.229-0.979-0.323-1.488-0.471 c-0.078,0.334,0.415,0.148,0.248,0.591c-1.042,0.374-1.917,0.766-1.85,1.733c-0.348,0.37-0.969,0-1.117-0.212 c-0.136,0.262-0.443,0.427-0.988,0.334c0.01-0.312,0.01-0.59-0.106-0.755c-0.309,0.136-0.504,0.349-0.608,0.633 c-0.406-0.073-0.364-0.284-0.997-0.123c0.248,0.211,0.501,0.307,0.501,0.493c-0.253,0.142-0.651,0.454-0.872,0.242 c-0.017,1.149-0.9,1.519-1.984,1.875c-0.236-0.168-0.477-0.357-0.361-0.85c-0.552-0.092-0.928,0.053-1.36,0.092 c0.217,0.699,0,0.699,0.128,1.222c-0.652,0.279-1.214,0.629-1.732,0.984c0-0.047,0-0.076,0-0.115c-0.159,0-0.337,0-0.496,0 c-0.184,0.184-0.092,0.649-0.104,0.981c0,0.044,0,0.072,0,0.133c-0.651,0.212-0.596,0.212-1.25,0 c-0.092,0.406,0.2,0.406,0.37,0.501c-0.075,0-0.462,0.209-0.128,0.488c-0.406,0.209-1.17,0.025-1.229,0.587 c0.398,0.516,0.805,0.747,1.97,0.675c-0.145,0.331-0.632,0.406-0.494,1.078c-1.108,0.164-1.651,0.894-2.342,1.479 c-0.371-0.145-0.842-0.635-1.343-0.276c-0.045,0.465,0.663,0.131,0.741,0.412c-0.24,0.396-1.011,0.24-0.883,0.984 c-0.27,0-0.554,0-0.852,0c-0.176,0.465-0.259,1.014-0.861,1.106c-0.075-0.234-0.067-0.516-0.231-0.641 c-0.633,1.624-1.354,3.117-3.084,3.613c0-0.56-0.095-1.148,0.24-1.363c-0.98-1.239-1.839,1.229-3.084,1.363 c-0.37,0.303,0.497,0.395,0.126,0.702c-0.823,0.253-1.118,0.961-1.354,1.733c-1.211,0.304-1.95,1.078-2.596,1.972 c-0.12,2.076-2.142,2.226-2.596,3.951c-0.148,0.19-0.577,0.095-0.725,0.281c-0.198,1.36-1.34,1.828-1.607,3.184 c-0.262-0.256-0.56-0.468-0.719-0.749c-0.468,0.07-0.189,0.888-0.265,1.365c-0.156,0.162-0.599,0.064-0.763,0.253 c0.125,1.41-0.435,2.156-1.215,2.672c-0.384,0.092-0.272-0.381-0.738-0.206c-0.098,0-0.112,0.084-0.251,0.084 c-0.136,0.498,0.201,0.565,0.355,0.776c0.069,0.889-1,0.774-0.708,1.972c-0.496,0.067-0.822,0.348-1.131,0.622 c-0.022,0.311,0.482,0.098,0.387,0.453c-1.417-0.049-0.978,1.756-1.476,2.624c-0.162,0.162-0.588,0.037-0.75,0.226 c0,0.519,0,1.078,0,1.599c-0.145,0.193-0.584,0.095-0.729,0.276c0.116,1.215-0.067,2.134-1.12,2.204c0,0.423,0,0.825,0,1.226 c-0.326,0.133-0.558,0.373-0.622,0.743c-0.27-0.518-0.702-0.067-0.236,0.254c-0.479,0.05-0.251,1.32-0.123,1.571 c-0.128,0.123-0.285,0.147-0.499,0.147c-0.07,0.413,0.055,0.68,0.123,0.956c-0.123,0.047-0.098,0.187-0.123,0.281 c-0.106-0.027-0.118-0.12-0.246-0.12c-0.159,0.148-0.139,0.398-0.128,0.733c-0.387,0.064-0.323-0.335-0.61-0.359 c-0.998,0.399,0.181,2.092-1.234,2.337c0.008,0.432,0.131,0.332,0,0.733c-0.309-0.254-0.621-0.541-0.872-0.887 c-0.206,1.516-1.638,1.831-2.098,3.093c0.314,0.345,0.276-0.26,0.741-0.12c0.248,0.275,0.368,0.635,0.744,0.769 c0.028,0.237-0.092,0.374-0.356,0.374c0.008,0.264,0.41,0.211,0.356,0.585c-0.161,0.147-0.568,0.055-0.744,0.239 c-0.201,0.869,0.543,0.769,0.387,1.613c-1.733-1.053-0.668,2.34-1.496,2.959c0.013,0.373,0.292,0.462,0.492,0.621 c-0.248,0.215-0.066,0.585,0,0.864c-0.866,0.454-1.147,0.268-1.1,1.357c0.278-0.368,0.117-0.129,0.37,0.125 c0,0.027,0,0.056,0,0.117c-0.214,0.278-0.462,0.562-0.758,0.749c0.452,0.331,0.652,1.902,0,2.223 c0.037,0.31,0.25,0.398,0.388,0.619c-0.07,0.465-0.604,0.465-0.488,1.069c-1.072-0.183-0.665,1.079-0.737,1.886 c-0.265-0.086-0.873,0.181-0.752-0.245c0.696-0.563-0.1-2.596,0.886-2.835c-0.398-0.376-0.429,0.184-0.886,0.125 c0.044-0.685-0.151-2.069,0.39-2.602c0.027-0.284-0.12-0.407-0.39-0.407c-0.005-0.272-0.005-0.548,0.123-0.698 c0.295,0.027,0.243,0.426,0.63,0.373c0-0.184,0.033-0.281,0.133-0.373c0.343-0.034,0.307-0.744-0.133-0.627 c-0.334-0.028-0.46-0.308-0.362-0.732c0.396,0,0.802,0,0.71-0.496c-0.167-0.649,0.312-0.627,0.389-0.986 c-0.821,0.095,0.012-1.42-0.604-1.446c-0.217-0.354-0.025-0.997-0.496-1.025c0.71-0.375,0.231-1.329,0.496-1.732 c0.401-0.12,0.488-0.642,0.956-0.733c-0.306-0.321-0.34-0.958-0.741-1.237c0.075-0.306,0.49-0.256,0.389-0.747 c-0.261-0.147-0.484-0.309-0.389-0.824c0.401,0.049,0.462-0.163,0.741-0.163c0.156-0.422-0.448-0.186-0.352-0.614 c0.441,0.099,0.366-0.371,0.352-0.744c0.156-0.09,0.337-0.128,0.619-0.128c-0.307-0.483-0.154-0.525,0.125-0.951 c-0.666-0.07-0.153-0.561-0.356-1.117c0.39,0.064,0.356-0.335,0.473-0.49c-0.49-1.229,0.591-1.998,0.75-2.959 c0.042,0,0.086,0,0.117,0c0.192-0.584,0.033-1.452,1.108-1.117c-0.688-0.776,0.594-1.454-0.239-2.097 c0.677-0.182,0.268-1.488,0.374-2.218c0.46-0.442,0.766-0.989,0.733-1.849c0.214,0,0.42,0,0.615,0 c0.094-0.496-0.401-0.443-0.237-0.964c0.273-0.304,0.582-0.523,0.732-0.888c-0.058-0.445-0.565-0.398-0.362-1.123 c0.513-0.207,0.83-0.635,0.724-1.479c0.287-0.063,0.565-0.158,1.006-0.089c0.047-0.466-0.593-0.187-0.632-0.493 c0.406-0.116,0.406-0.68,0.375-1.237c0.304,0,0.588,0,0.744-0.122c0-0.466,0-0.934,0-1.382c0.61-0.231,0.683-0.961,1.109-1.334 c-0.187-0.091-0.479-0.091-0.368-0.49c0.273-0.069,0.513-0.159,0.741-0.282c-0.214-0.98,0.585-0.96,0.373-1.947 c0.212,0,0.401,0,0.61,0c-0.147-0.772-0.237-1.022-0.12-1.855c1.292,0.406,2.008-1.725,2.452-2.962 c0.29-0.027,0.535-0.15,0.757-0.217c0.388-1.069,0.215-2.644,1.477-2.836c0.198-0.677,0.519-1.207,1.106-1.521 c0-0.301,0-0.636,0-0.981c0.523-0.215,0.718-0.802,1.468-0.841c0-0.334,0-0.677,0-0.983c0.707-0.427,0.729-1.507,1.482-1.85 c-0.193-1.173,1.053-0.917,0.751-2.229c0.7,0.165,0.625-0.42,0.847-0.704c0.407-0.184,0.114,0.373,0.496,0.217 c-0.031-0.34,0.496-0.095,0.371-0.493c-0.206-0.248-0.535-0.376-0.613-0.777c0.516-0.58,1.072-1.143,1.846-1.455 c0-0.276,0-0.577,0-0.858c0.299,0,0.583,0,0.87,0c0.301-0.309-0.268-0.24-0.125-0.771c0.588,0.181,0.198-0.563,0.493-0.71 c1.271-0.349,1.636-1.571,2.591-2.218c0.243,0.062,0.235,0.343,0.496,0.391c0.493-1.479,1.376-2.502,2.719-3.087 c0-0.24,0-0.427,0-0.613c0.958,0.12,0.771-0.891,1.701-0.747c0.256-0.083-0.025-0.702,0.27-0.769 c1.332-0.307,1.421-1.813,3.057-1.813c0.231-0.371,0.404-0.767,0.621-1.12c0.791-0.273,1.73-0.421,1.73-1.477 c0.307,0.025,0.479-0.025,0.613-0.117c0.049-0.376-0.134-0.961,0.264-1.003c0.31,0.042,0.226,0.418,0.226,0.749 c0.223,0,0.437,0,0.621,0c-0.423-0.68,0.101-0.803-0.248-1.476c0.388-0.095,0.357-0.563,1-0.376 c0.056-0.399-0.381-0.304-0.24-0.747c1.343,0.255,1.243-0.956,2.455-0.861c0.089-0.362-0.432-0.15-0.25-0.613 c0.365-0.067,0.351-0.562,0.992-0.378c0.184-0.307,0.047-0.917,0.729-0.73c-0.674-0.624,0.504-1.024-0.61-1.331 c0.098,0.708-0.12,1.175-0.619,1.331c-0.342-0.069-0.446-0.654-0.858-0.253c-0.095,0.399,0.396,0.165,0.365,0.494 c-1.047,0.582-1.71,1.482-3.212,1.616c-0.161,0.137-0.061,0.541-0.242,0.727c-0.679,0-0.679,0.588-1.588,0.37 c-0.134,0.939-0.847,1.176-1.608,1.479c0.089,0.75-0.373,0.933-1.114,0.844c-0.109,1.262-1.404,1.332-2.206,1.877 c0.041,0.995-0.864,0.995-1.508,1.354c-0.102-0.207,0.031-0.68-0.342-0.614c0.147,0.614-0.404,0.519-0.374,0.986 c0.24-0.024,0.387,0.095,0.374,0.374c-0.68,0.19-0.917,0.708-1.725,0.708c0.703,1.426-1.766,1.17-1.736,2.597 c-1.186,0.373-1.715,1.329-2.345,2.228c-0.532,0.181-0.454-0.312-0.747-0.334c-0.089,0.14-0.192,0.351-0.49,0.334 c-0.134,0-0.332,0.017-0.379-0.123c0.07-0.892,0.541-0.683,0-1.337c0.633-0.023,0.633,0.119,1.123,0c0-0.145,0-0.279,0-0.396 c0.304-0.095,1.081,0.251,0.986-0.257c-0.094-0.262-0.683-0.021-0.986-0.116c0-0.069,0-0.146,0-0.217 c0.143-0.112,0.332-0.178,0.616-0.156c-0.017-0.87,0.593-1.104,0.49-2.089c1.148-0.067,1.078-1.359,1.732-1.948 c0.678,0.246,1.321-0.181,1.851,0.246c0.069-0.5,0.172-0.995,0.493-1.24c0.014-0.362-0.777,0.095-0.732-0.239 c1.169-0.351,1.2-1.855,2.836-1.732c0.056-0.563,0.49-1.359,1.103-0.989c0.391,0,1.763-0.025,1.838-0.743 c-0.687-0.146-0.679,0.395-1.339,0.256c0.184-0.562,0.621-0.936,1.083-1.267c0-0.31,0-0.629,0-0.956 c0.711,0.145,0.677-0.44,0.861-0.751c1.362,0.278,1.086-1.053,2.476-0.73c0.195-0.499,0.678-0.532,1.357-0.744 c0.242-1.454,2.554-2.443,3.705-1.851c0.047-0.592,0.541,0,0.741,0c0.505-1.426,2.185-1.735,3.706-2.228 c0.3-1.448,2.05-2.108,3.459-2.061c0,0.027,0,0.047,0,0.123c0.368,0.892,1.507,0.276,1.465-0.621 c0.46,0.123,0.841-0.279,0.37-0.407c-0.172-0.493,0.265-0.331,0.613-0.359c0.038,0.187,0.167,0.273,0.375,0.273 c0-0.086,0-0.158,0-0.273c0.165,0,0.32,0,0.493,0c0.078,0,0.165,0,0.223,0c0.172,0,0.345,0,0.493,0c0.471,0,0.919,0,1.376,0 c0.239,0.115-0.07,0.766,0.354,0.61c0.097-0.25-0.156-0.799,0.117-0.833c0.398-0.12,0.258,0.337,0.632,0.223 c0-0.409-0.061-0.966,0.237-1.119c0.68,0.93,2.312-0.708,3.092-0.099c0.019-0.374-0.12-0.98,0.251-1.008 c0.311,0.61,0.843,0.307,1.222,0c0.111,0.243,0.056,0.635,0.259,0.772c0.493-0.251,0.493-0.933,0.608-1.491 c1.451,0.407,1.922-0.986,2.824-0.362c0.112-0.807,0.792-0.094,1.123,0c-0.02-0.317-0.02-0.624,0.128-0.741 c0.992-0.189,1.663-0.12,1.964-1.148c0.663-0.15,0.423,0.585,1.114,0.396c0.298-0.775,1.44-0.703,2.075-1.137 c0.376,0,0.173,0.591,0.416,0.741c1.167-0.094,1.788-0.052,3.167-0.329c-0.054-0.439,0.136-0.635,0.39-0.752 c0.638,0.703,1.251-0.069,2.089,0.34c0.66-0.891,1.64,0.154,2.838,0c0.579-0.027,0.796-0.669,1.477-0.34 c0.824,0.703,1.398,1.639,3.089,1.477c0.439-0.49,0.838-1.042,1.468-1.359c0.289,0.195,0.448,0.563,0.874,0.635 c0.04-0.439,0.399-0.591,0.736-0.752c0.25,0.076,0.4,0.256,0.61,0.34c1.042-1.39,2.306,0.271,3.571,0.412 c0.527,0.045,0.482-0.284,0.869-0.412c0.273-0.027,1.044,0.254,1.471,0c0.214,0.181,0,0.741,0.376,0.741 c0.237-0.234,0.401-0.646,0.877-0.741c2.142,0.619,5.05,1.674,7.153,1.51c1.409,0.585,3.025,2.134,4.549,1.858 c0.697,0.558,1.187,1.329,2.329,1.449c-0.152,0.93,0.616,0.896,0.736,1.479c0.175,0.529-0.349,0.318-0.376,0.625 c0.189,0.117,0.42,0.189,0.376,0.493c-0.24,0.092-0.388,0.25-0.613,0.376c-0.206-0.443-0.438-0.125-0.744,0 c-1.067-0.715-1.398-2.194-3.32-2.075c0.178,0.738,1.134,0.738,1.719,1.111c0.172,0.838,0.802,1.242,1.12,1.945 c-0.103,0.233-0.504,0.186-0.387,0.612c0.217,0.683,1.262,0.491,1.245,1.357c1.906,0.866,3.483,2.042,3.583,4.705 c-0.972,0.05-0.872,1.198-2.101,0.983c-0.206,0.054,0,0.588-0.246,0.61c-0.442,0.034-1.075-0.114-1.359,0.117 c0.346,1.009,0.215,0.964,0.368,2.112c-0.276,0.253-0.672,0.396-1.104,0.493c0,0.725,0,1.385,0,2.073 c-1.25,0.312-3.287,1.484-4.323,0.76c-1.031,0.814-3.532,0.162-5.167,0.374c-0.242-0.05-0.098-0.487-0.504-0.374 c-0.884,0.093-1.441-0.113-2.082-0.239c-0.294,0.145-0.373,0.491-0.747,0.613c-0.69,0.095-0.57-0.58-1.103-0.613 c-0.432,0.491-1.401-0.156-1.356-0.886c-1.824,0.114-3.396-0.045-4.577-0.59c-0.947,0.334-1.922,0.237-2.939,0 c-0.335,0.545-1.318,0.151-1.615-0.165c-0.248,0.069-0.329,0.287-0.477,0.401c-2.755-0.332-4.619,0.75-7.284,0.125 c-0.156,0.625-0.88,0.652-1.354,0.995c-0.243-0.062-0.098-0.51-0.507-0.402c-0.75,0.646-2.048,0.733-3.421,0.761 c-0.964,0.769-2.947,0.51-3.819,1.362C221.009,166.274,221.076,166.274,221.076,166.366z M196.904,154.182 c0.374,0.207,0.374-0.774,0-0.584C196.904,153.775,196.904,153.998,196.904,154.182z M198.01,172.172 c0.158,0.094,0.349,0.161,0.621,0.116C198.75,171.837,198.01,171.837,198.01,172.172z M190.232,178.473c0.214,0,0.44,0,0.641,0 c0-0.186,0-0.426,0-0.616C190.358,177.763,190.154,177.98,190.232,178.473z M187.656,180.322 c0.384-0.145,0.843-0.239,0.741-0.875C188.091,179.27,187.583,179.734,187.656,180.322z M183.6,184.022 c0.373,0.162,0.373-1.037,0-0.889C183.6,183.44,183.6,183.721,183.6,184.022z M162.022,201.75 c0.086-0.285,0.176-0.775-0.251-0.842C161.785,201.251,161.665,201.75,162.022,201.75z M159.791,217.305 c0.203,0,0.254-0.802-0.117-0.618C159.576,216.714,159.35,217.392,159.791,217.305z M159.791,218.046 c-0.056-0.374-0.236-0.585-0.607-0.611C159.097,217.927,159.3,218.141,159.791,218.046z M158.454,218.792 c0.323,0.028,0.462,0.496,0.729,0.212C159.389,218.444,158.501,218.353,158.454,218.792z"></path> <path fill="#2E3192" d="M218.242,166.868c0.877-0.994,1.604-0.039,2.833-0.501c0.303,0.415,0.37,1.053,0.722,1.398 c0.334-0.229,0.518-0.56,0.624-0.983c0.395,0,0.25,0.535,0.88,0.354c0.117-0.446-0.565-0.585,0-0.769 c0.677-0.092,0.677,0.462,1.089,0.651c0.084-0.236,0.32-0.329,0.597-0.37c0.493,0.621,1.921,0.404,1.985,1.448 c0.148-0.376,0.284-0.794,0.624-0.961c0.602-0.083,1.028,0.04,1.229,0.351c0.373-0.658,0.735-0.067,1.593-0.351 c-0.011,0.443,0.045,0.777,0.259,0.961c0.089-0.304,0.465-0.332,0.607-0.61c0.816,0.371,1.295,0.148,1.986-0.351 c1.176,0.813,2.532-0.769,3.326,0.961c-0.211-0.78,0.87-0.705,1.123-0.332c0-0.345,0-0.679,0.349-0.629 c0.292,0.039,0.142,0.532,0.384,0.629c0.468-0.309,0.799-0.713,1.612-0.629c0.022,0.351-0.167,0.961,0.224,0.961 c-0.025-0.304-0.011-0.677,0.371-0.61c0.393-0.067,0.08,0.582,0.376,0.61c0.017-0.429-0.103-0.961,0.348-0.961 c0.287-0.05,0.082,0.443,0.148,0.629c1.064-0.897,1.198,1.223,2.197,0.465c-0.122,0.454,0.463,0.173,0.368,0.616 c0.655-0.072,0.574-0.844,1.499-0.616c0,0.214,0,0.404,0,0.616c0.632-0.443,2.212-0.314,2.212,0.607 c0.526,0.212-0.031-0.679,0.501-0.49c0.702,0.025,0.435,1.053,0.858,1.359c0.059-0.423-0.223-1.197,0.499-0.986 c0,0.304,0,0.582,0,0.864c0.214,0.237,0.61,0.282,0.989,0.401c0.326-0.279,0.493-0.683,1.204-0.499c0,0.189,0,0.407,0,0.591 c0.655-0.092,0.671,0.426,1.122,0.498c0.262-0.161,0.387-0.429,0.76-0.498c0.711,0.61,1.786,0.841,2.079,1.875 c-0.108-0.546,0.209-0.636,0.501-0.73c0.345,0.24,0.788,0.398,0.735,1.081c0.476-0.192,0.821-0.496,1.626-0.351 c0.755,0.632,2.062,0.821,2.433,1.833c0.403,0.017,0.359-0.406,0.885-0.282c0.307,0.462,0.917,0.583,1.092,1.142 c1.777-0.187,2.435,0.744,3.097,1.733c0-0.352-0.131-0.778,0.365-0.61c0.034,0.518,0.516,0.634,0.488,1.197 c0.295,0,0.454-0.161,0.866-0.097c0.789,1.177,2.585,1.359,3.213,2.719c0.425-0.165,1.254,0.024,1.104,1.075 c0.351,0.123,0.306-0.117,0.624-0.089c0.24,1.208,1.705,1.208,1.972,2.471c0.328,0,0.223-0.435,0.718-0.273 c-0.039,1.198,1.014,1.315,0.758,2.716c0.256,0.303,0.401-0.376,0.702,0c-0.167,1.078,0.05,1.262-0.1,2.086 c-0.541-0.395-0.541,0-1.091,0.134c-1.265-0.766-1.104-2.995-2.491-3.674c-0.067,0.398-0.629,0.332-0.602,0.822 c0.401,0.54,1.75,0.688,1.125,1.521c0.513,0.067,0.786,0.401,0.981,0.825c-0.268,0.446-0.457,0.911-0.619,1.376 c0.424,0.357,0.552,1.009,0.947,1.359c-0.021,0.262-0.512,0.329-0.211,0.613c0.774,0.092,1.548,0.766,1.098,1.351 c0.25,0.281,0.612,0.47,0.963,0.593c-0.351,0.307-0.211,0.703,0.417,0.651c0,1.079,0,2.223,0,3.324 c-0.49,0.07-0.808-0.064-1.008-0.251c-0.506,0.321-1.165,0.507-1.47,1c-0.424-0.039-0.374-0.529-0.736-0.652 c-0.312,0.282-0.73,0.513-0.139,0.772c-0.29,0.426-0.814,0.658-0.87,1.334c-0.529-0.142-0.479-0.256-0.969,0 c0.195,1.008-0.427,1.125-0.497,1.881c-1.446,0-3.089-0.101-4.819-0.376c-0.265-0.588-1.382-0.379-1.599-0.989 c-0.385,0.61-0.705-0.279-1.117-0.398c-0.12,0.023-0.064,0.243-0.24,0.243c-0.401-0.148-0.769-0.359-0.744-0.945 c-0.375-0.091-0.134,0.396-0.61,0.234c-0.097-0.146-0.164-0.326-0.108-0.652c-0.359,0.352-0.816,0.371-0.747-0.332 c-0.226,0.021-0.226,0.332-0.629,0.237c-0.064-0.31-0.156-0.546-0.106-1.009c-0.426-0.097-0.181,0.424-0.25,0.652 c-0.548,0-1.078,0-1.61,0c0.217-1.401-1.331-1.047-1.493-2.105c-0.208,0.072-0.201,0.334-0.599,0.256 c-0.156-0.35-0.15-0.866-0.104-1.334c-0.538-0.211-0.047,0.585-0.39,0.585c-0.521,0.031-0.479-0.396-0.744-0.585 c-0.229,0-0.211,0.31-0.598,0.191c-0.385-0.726-1.146-1.079-2.24-1.079c0.086-0.382-0.292-0.345-0.479-0.496 c0-0.279,0-0.555,0-0.861c-0.396-0.07-0.092,0.538-0.373,0.604c-0.747-0.091-0.956-0.791-1.474-0.98 c-0.048-0.028-1.268,0.307-1.488-0.4c-0.457,0.523-0.794-0.039-1.114-0.349c-0.329,0.31-1.947,0.192-1.847-0.727 c-0.282,0.262-0.774,0.262-1.351,0.262c0.052-0.332-0.221-0.307-0.132-0.613c-0.93,0.708-1.744-0.582-2.822-0.139 c0.04-0.326-0.231-0.285-0.147-0.608c-0.268,0.14-0.516,0.323-0.719,0.608c-0.451,0.139-0.147-0.538-0.376-0.608 c-0.543,0.471-0.729-0.164-1.351,0.226c0-0.46-0.855-0.131-0.855-0.583c-0.905,0.828-2.504,0.034-3.209-0.415 c-0.398,0.184-0.676,0.415-0.986,0c-0.682,0.555-1.332-0.258-2.104-0.119c-0.591,0.119-2.532,0.119-2.842-0.24 c-0.554,0.309-2.429,0.496-2.964,0c-2.042,0.457-3.855,0-6.023,0.24c-0.144,0.069-0.27,0.164-0.252,0.375 c-0.516-0.426-1.71,0.46-2.332-0.256c-0.245,0.098-0.092,0.607-0.37,0.626c-0.438,0.146-0.189-0.371-0.254-0.626 c-0.348,0-0.348,0.323-0.367,0.626c-1.802-0.256-2.824,0.146-4.931,0.753c-0.406,0.072-0.17-0.418-0.504-0.382 c-0.31,0.382-1.106,0.215-1.226,0.738c-0.493-0.493-1.334,0.49-1.855-0.217c-0.808,0.613-2.076,0.87-3.072,1.335 c-0.455,0-0.476-0.444-0.744-0.627c-0.02,0.68-0.841,0.563-1.106,1.003c-0.373,0.117-0.201-0.284-0.245-0.516 c-0.395-0.088-0.172,0.422-0.36,0.516c-1.233-0.284-1.607,1.432-2.709,0.493c-0.148,1.103-2.266,1.382-2.976,1.103 c-0.329,0.956-1.145,1.418-2.462,1.333c0.184-0.961,0.641-1.613-0.134-2.324c-0.449,1.34-2.176,1.363-2.953,2.324 c-0.271,0.085-0.162-0.19-0.374-0.19c-0.471,0.427-0.986,0.872-1.468,1.334c-0.477,0.218-0.047-0.56-0.382-0.509 c-0.217,0.159-0.095,0.657-0.236,0.869c-0.385,0-0.755,0-1.109,0c-0.504,1.452-2.176,1.758-2.983,2.945c-0.229,0-0.476,0-0.708,0 c-0.465,1.036-1.354,1.6-2.223,2.245c-0.334,0.06-0.262-0.25-0.493-0.28c-0.153,0.122-0.246,0.339-0.496,0.403 c0.051,0.211,0.343,0.211,0.25,0.585c-0.571-0.424-1.228,0.095-1.359,0.774c-1.125,0.251-1.264,1.516-2.348,1.822 c-0.337,0.098-0.243-0.214-0.365-0.371c-0.368,0.025-0.207,0.61-0.248,0.983c-0.527,0.072-0.753,0.443-1.115,0.651 c0,0.304,0,0.616,0,0.965c-0.368,0.117-0.466-0.137-0.616-0.259c0.192,1.49-1.622,1.028-1.59,2.348 c-0.265,0.184-0.88,0.036-0.858,0.49c-0.551-0.361-0.583-0.024-1.256,0c0.211,0.813,0.064,0.744,0.245,1.725 c-0.771,0.541-1.725,0.937-1.964,1.995c-0.317,0.092-0.245-0.253-0.487-0.253c-0.083,0.713-0.312,1.332-0.488,1.942 c-0.145,0.211-0.584,0.127-0.749,0.278c-0.105,1.173-0.7,1.941-1.484,2.465c-0.201-0.123,0.013-0.584-0.229-0.613 c-0.2,0.491-0.487,0.841-0.621,1.354c-0.401-0.142-0.549-0.368-0.855,0c0,0.541,0.616,0.469,0.616,0.992 c-1.432,0.129-1.284,1.821-1.607,3.064c-0.337,0-0.719,0.056-0.739-0.256c-0.225,0.117-0.239,0.44-0.37,0.63 c-0.805-0.442,0.262-0.914,0-1.855c0.644-0.086,0.68-0.858,0.983-1.337c-0.083-0.179-0.2-0.301-0.375-0.393 c-0.292,0.214-0.423,0.584-0.858,0.609c0.272,1.825-0.927,2.106-1.229,3.371c-0.226,0-0.41,0-0.632,0 c-0.139,0.584,0.384,0.495,0.376,0.958c-0.813,0.147-1.112,0.858-1.112,1.852c-0.15,0.087-0.339,0.146-0.615,0.121 c0.276,0.493,0.064,1.075-0.496,1.108c0.159,0.365,0.545,0.435,0.378,1.112c-1.111,0-1.337,0.867-1.732,1.602 c0.156,0.462,0.768,0.462,0.621,1.24c-0.134,0.117-0.329,0.158-0.621,0.117c0.821,0.744-0.833,1-0.359,1.732 c0.223-0.119,0.158-0.515,0.607-0.407c-0.652,0.986-1.267,2.042-2.209,2.755c0.401-0.991-0.172-1.543,0.231-2.587 c0.242-0.187,0.925,0,0.741-0.625c-0.337,0.282-0.649,0.282-0.853-0.125c0-0.062,0-0.089,0-0.117 c-0.253-0.253-0.092-0.493-0.371-0.125c-0.047-1.088,0.234-0.901,1.101-1.356c-0.067-0.279-0.248-0.649,0-0.864 c0.259,0,0.15-0.345,0.49-0.247c0.312-0.964-0.705-1.106-0.231-1.855c0.329-0.095,0.231,0.234,0.494,0.234 c0.231-0.482,0.209-1.25,0.846-1.334c-0.071-0.468,0.221-1.37-0.239-1.496c0.721-0.819,0.092-3.026,1.36-3.329 c0-0.526,0.398-0.747,0.125-1.217c0.131-0.401,0.008-0.301,0-0.732c1.415-0.246,0.236-1.939,1.233-2.337 c0.288,0.025,0.224,0.424,0.61,0.359c0.095,0.374-0.337,0.251-0.24,0.627c0.145,0,0.334,0,0.496,0 c0.011-0.75,0.543-0.714,0.118-1.241c0.024-0.093,0-0.234,0.122-0.28c-0.066-0.277-0.192-0.544-0.122-0.956 c0.213,0,0.37-0.025,0.498-0.148c0.15-0.618,0.793-1.12,0.123-1.57c-0.465-0.321-0.033-0.772,0.236-0.254 c0.123,0,0.254,0,0.379,0c0.655-0.705,1.025-1.76,1.975-2.224c-0.109-0.217-0.332-0.306-0.253-0.771 c0.59,0.153,0.682,0.348,0.998-0.215c-1.009-1.12,1.212-1.761,0.864-2.97c0.286,0.067,0.242-0.21,0.598-0.094 c-0.293-0.396-0.541-1.078-0.109-1.506c0.349,0.095,0.407,0.523,0.349,1.017c0.267-0.494-0.042-1.546,0.889-1.387 c-0.131-0.747,0.325-0.889,0.741-1.104c-0.188-0.139-0.201-0.468-0.385-0.629c0.229-0.555,0.657-0.892,1.106-1.198 c0.326-0.033,0.39,0.192,0.624,0.218c0.477-0.989,0.908-1.942,1.251-3.093c1.139-0.095,1.3-1.172,2.181-1.568 c0.04-0.402-0.053-0.939,0.145-1.109c0.356-0.136,0.226,0.237,0.479,0.237c0.12-0.557,0.683-0.652,0.507-1.474 c0.797-0.095,1.134-1.24,2.081-0.747c0.281-0.072,0.05-0.61,0.134-0.895c0.512-0.558,1.542-1.083,2.223-1.947 c0.32-0.396,0.474-1.702,1.351-1.237c0.37-0.554,0.591-1.284,1.49-1.354c0.671-0.053,0.125-1.412,0.983-1.362 c-0.162,0.568,0.223,0.961,0.593,0.63c-0.008-0.279-0.518-0.14-0.348-0.63c1.267,0.095,1.326-1.053,1.727-1.85 c0.462-0.184,0.034,0.565,0.34,0.495c0.295-0.027,0.07-0.612,0.131-0.824c0.287,0.048,0.984-0.225,0.886,0.211 c0.064-0.28,0.543-0.535,0.608-0.751c0.044-0.184-0.385-0.206-0.385-0.374c0-0.212,0.995-1.167,1.614-1.31 c0.42-0.14,0.217-0.936,0.746-1.123c0.318-0.092,0.243,0.253,0.479,0.253c0.153-0.396,0.262-0.84,0.613-0.986 c0.261-0.067,0.404,0.028,0.37,0.236c0.337-0.462,0.649-0.917,0.98-1.354c0.379-0.123,0.334,0.156,0.644,0.089 c0.167,0,0.108-0.276,0.108-0.465c1.201-0.145,1.97-0.73,2.594-1.479c0.303-0.022,0.473,0,0.613,0.114 c0.156-0.042,0.123-0.323,0.123-0.487c0.582-0.14,1.37-0.118,1.485-0.705c0.271,0,0.571,0,0.866,0 c0.761-1.076,2.961-0.675,3.56-1.872c0.374,0.027,0.827-0.095,0.989,0.122c0.29-1.404,2.49-0.85,3.217-1.738 c0.301,0.067,0.747,0,0.735,0.371c0.387-0.036,0.195-0.619,0.254-1.02c0.39-0.052,0.39,0.209,0.599,0.281 c0.15-0.476,0.334-0.902,0.866-0.992c0,0.212,0,0.398,0,0.613c0.518,0.045,0.518-0.465,0.888-0.613 c0.356-0.02,0.388,0.282,0.349,0.613c0.334-0.307,0.493-0.822,0.613-1.315c1.142,0.42,2.131-0.685,2.716-1.516 c0.379-0.072,0.262,0.39,0.379,0.647c0.299-0.184,0.627-0.282,0.607-0.769c-1.131-0.777-2.251-0.095-3.092,0.612 c-0.368,0-0.145-0.59-0.368-0.734c-0.243,0.122-0.184,0.518-0.362,0.734c-0.68-0.125-0.842,0.212-1.362,0.251 c0.058-0.278-0.022-0.493-0.128-0.629c-0.167,0.136-0.167,0.404-0.24,0.629c-0.716-0.094-1.146,0.09-1.345,0.49 c-0.482,0.028-0.789-0.134-0.97-0.373c-0.128,0.496-0.485,0.71-0.777,0.983c-0.264,0.07-0.153-0.234-0.356-0.234 c-0.189,0.234-0.529,0.328-0.733,0.609c-0.573-0.02-0.454-0.793-1.12-0.702c0.783,1.037-1.348,0.983-1.849,1.813 c-0.268,0.061-0.173-0.22-0.357-0.245c-0.142,0.375-0.551,0.426-1.109,0.375c-0.231,0.329-0.306,0.822-0.752,1.006 c-0.328-0.145-0.565-0.371-0.728-0.652c-0.936,1-2.08,1.803-2.975,2.852c-0.398,0.123-0.178-0.373-0.236-0.654 c-0.733,0.123-1.393,0.282-1.485,1.053c-0.031,0-0.078,0-0.125,0c-1.165,0.072-1.572-0.159-1.97-0.674 c0.058-0.563,0.821-0.379,1.229-0.588c-0.335-0.279,0.053-0.488,0.128-0.488c-0.169-0.095-0.462-0.095-0.371-0.501 c0.655,0.211,0.599,0.211,1.251,0c0-0.062,0-0.089,0-0.134c0.385-0.086,0.212-0.769,0.599-0.866 c0.518-0.354,1.081-0.705,1.733-0.983c-0.128-0.524,0.089-0.524-0.128-1.224c0.432-0.039,0.808-0.184,1.359-0.091 c-0.114,0.493,0.126,0.682,0.362,0.85c1.083-0.357,1.966-0.727,1.983-1.875c0.22,0.212,0.618-0.1,0.872-0.243 c0-0.186-0.253-0.281-0.501-0.493c0.633-0.161,0.59,0.05,0.998,0.123c0.103-0.284,0.298-0.496,0.607-0.632 c0.117,0.165,0.117,0.443,0.106,0.755c0.546,0.093,0.853-0.072,0.989-0.334c0.148,0.211,0.769,0.582,1.117,0.211 c-0.067-0.966,0.807-1.359,1.85-1.732c0.167-0.443-0.326-0.257-0.248-0.591c0.51,0.148,1.056,0.243,1.488,0.471 c-0.148-0.37,0.25-0.229,0.493-0.253c0.378-0.218-0.465-0.468,0-0.733c0.346,0.359,0.504,0.359,0.864,0 c0.108,0.148,0.162,0.337,0.108,0.616c0.772-0.072,0.822-0.315,1.12-0.468c-0.203-0.19-0.51-0.19-0.633-0.376 c0.658-0.282,0.401,0.229,0.986,0.229c0.028-0.191,0-0.437,0.256-0.348c0.362,0.12,0.395,0.563,0.864,0.612 c-0.159-0.426,0.398-0.116,0.253-0.492c0.482-0.583,1.105-0.209,1.719-0.516c0.262,0.147,0.303,0.516,0.61,0.61 c-0.114-0.404,0.376-0.184,0.627-0.215c0.223,0.066-0.042,0.686,0.246,0.707c0.275-0.239,1-0.796,0.746-1.359 c0.396,0.137,0.518,0.49,0.864,0.652c0.144-0.37,0.492-0.426,0.86-0.278c0.214,0.189,1.042-0.399,1.356,0.161 C217.629,167.205,218.073,167.205,218.242,166.868z"></path> </g> </g> </g> </svg> 